<?xml version="1.0" encoding="UTF-8"?>
<svg version="1.1" xmlns="http://www.w3.org/2000/svg" width="577" height="577">
<path d="M0 0 C8.11538881 5.22309725 12.72687399 13.70035773 17.38201904 21.89321899 C19.22550283 25.13623884 21.09945508 28.36165687 22.96875 31.58984375 C23.54271011 32.5837336 23.54271011 32.5837336 24.12826538 33.59770203 C27.96596834 40.23044204 31.94002151 46.77493257 35.9375 53.3125 C40.60153762 60.94735663 45.2305607 68.60000403 49.78515625 76.30078125 C50.22126221 77.03784805 50.65736816 77.77491486 51.10668945 78.53431702 C53.24095146 82.14362995 55.37081833 85.75546305 57.49560547 89.37036133 C58.26653199 90.67663611 59.03752466 91.98287186 59.80859375 93.2890625 C60.15986832 93.88975052 60.51114288 94.49043854 60.87306213 95.10932922 C62.29046295 97.50573938 63.5841218 99.5216218 65.5625 101.5 C67.49418958 101.38295616 67.49418958 101.38295616 69.67723083 100.75344849 C70.53915543 100.53742981 71.40108002 100.32141113 72.28912354 100.09884644 C73.2371283 99.84853668 74.18513306 99.59822693 75.16186523 99.34033203 C76.65735649 98.96038086 76.65735649 98.96038086 78.18305969 98.57275391 C80.3560683 98.01912287 82.52770315 97.46007898 84.69811821 96.89636612 C88.13884352 96.00320492 91.5830417 95.1248552 95.02857971 94.25045776 C103.59447866 92.07348943 112.15411952 89.87233293 120.71331787 87.66918945 C127.92916713 85.81246298 135.14756031 83.96633271 142.36979866 82.13460922 C145.75301274 81.27198411 149.13198665 80.39396594 152.51109314 79.51541138 C154.60672277 78.9823039 156.70254356 78.44994708 158.79858398 77.91845703 C159.72837067 77.67219574 160.65815735 77.42593445 161.61611938 77.17221069 C170.75220596 74.88991296 180.00069556 73.9454328 188.5625 78.5 C194.39864289 82.34654872 198.02066123 87.69021208 199.5625 94.5 C200.01975741 101.80595278 199.24354602 108.36339594 197.40698242 115.41845703 C197.0630822 116.80369568 197.0630822 116.80369568 196.7122345 118.21691895 C195.95989844 121.23382263 195.18927531 124.2457084 194.41796875 127.2578125 C193.88603672 129.37261439 193.3551552 131.48768076 192.82527161 133.60299683 C191.71580697 138.02104356 190.59802274 142.43686493 189.47338867 146.85107422 C188.0364546 152.49130766 186.6137915 158.13500936 185.19652843 163.78021431 C183.83763161 169.19062424 182.47190861 174.59930357 181.10546875 180.0078125 C180.84771353 181.03016117 180.58995831 182.05250984 180.32439232 183.10583878 C179.58871499 186.01829612 178.84823493 188.92948852 178.10620117 191.84033203 C177.89256927 192.68836395 177.67893738 193.53639587 177.45883179 194.41012573 C176.06201538 199.86167936 174.41170722 205.18504248 172.5625 210.5 C173.61908813 210.89239868 173.61908813 210.89239868 174.69702148 211.29272461 C177.77071387 212.58772408 180.53415908 214.12721936 183.41015625 215.81640625 C184.25003082 216.30830193 184.25003082 216.30830193 185.10687256 216.81013489 C186.94848605 217.89049954 188.78684289 218.97626649 190.625 220.0625 C191.92859271 220.82965246 193.23222291 221.59674122 194.53588867 222.36376953 C204.33758701 228.14124361 214.07534184 234.02014035 223.78027344 239.95874023 C230.21089103 243.88950327 236.67570011 247.75191222 243.1875 251.546875 C244.64875436 252.40173117 246.1099364 253.25671099 247.57104492 254.11181641 C249.69749884 255.35604586 251.82562706 256.59660469 253.96133423 257.82489014 C273.05434356 268.80637408 273.05434356 268.80637408 276.125 277.2890625 C277.55641109 284.52280069 278.09997893 293.21801627 273.96557617 299.6418457 C268.60995426 306.73452682 260.75896379 311.00709716 253.16928101 315.31951904 C249.92626116 317.16300283 246.70084313 319.03695508 243.47265625 320.90625 C242.4787664 321.48021011 242.4787664 321.48021011 241.46479797 322.06576538 C234.83205796 325.90346834 228.28756743 329.87752151 221.75 333.875 C214.11514337 338.53903762 206.46249597 343.1680607 198.76171875 347.72265625 C198.02465195 348.15876221 197.28758514 348.59486816 196.52818298 349.04418945 C192.91887005 351.17845146 189.30703695 353.30831833 185.69213867 355.43310547 C184.38586389 356.20403199 183.07962814 356.97502466 181.7734375 357.74609375 C181.17274948 358.09736832 180.57206146 358.44864288 179.95317078 358.81056213 C177.55676062 360.22796295 175.5408782 361.5216218 173.5625 363.5 C173.67954384 365.43168958 173.67954384 365.43168958 174.30905151 367.61473083 C174.52507019 368.47665543 174.74108887 369.33858002 174.96365356 370.22662354 C175.33911819 371.64863068 175.33911819 371.64863068 175.72216797 373.09936523 C175.97546875 374.09635941 176.22876953 375.09335358 176.48974609 376.12055969 C177.04337713 378.2935683 177.60242102 380.46520315 178.16613388 382.63561821 C179.05929508 386.07634352 179.9376448 389.5205417 180.81204224 392.96607971 C182.98901057 401.53197866 185.19016707 410.09161952 187.39331055 418.65081787 C189.25003702 425.86666713 191.09616729 433.08506031 192.92789078 440.30729866 C193.79051589 443.69051274 194.66853406 447.06948665 195.54708862 450.44859314 C196.0801961 452.54422277 196.61255292 454.64004356 197.14404297 456.73608398 C197.39030426 457.66587067 197.63656555 458.59565735 197.89028931 459.55361938 C200.08706929 468.34737658 201.13109231 477.11965086 196.88671875 485.4296875 C193.42662587 490.83927224 189.15457172 495.14958056 182.88828468 497.00824928 C174.88029266 498.70141368 167.00136485 497.26021897 159.21337891 495.23681641 C157.75998108 494.87587639 157.75998108 494.87587639 156.27722168 494.50764465 C153.11123691 493.7180389 149.95024952 492.91014211 146.7890625 492.1015625 C144.57499676 491.54481573 142.3606671 490.98911756 140.14608765 490.43441772 C135.52294508 489.27367919 130.90202267 488.10461616 126.28271484 486.92871094 C120.36409383 485.42211761 114.44197286 483.92990377 108.51836586 482.44304848 C102.85738331 481.02152832 97.1981392 479.59314761 91.5390625 478.1640625 C90.46176502 477.89257008 89.38446754 477.62107765 88.27452469 477.34135818 C85.22712997 476.57199708 82.18100868 475.79779714 79.13525391 475.02197266 C78.23543793 474.79539474 77.33562195 474.56881683 76.40853882 474.33537292 C72.33271125 473.29190801 68.42239737 472.2097769 64.5625 470.5 C64.17010132 471.55658813 64.17010132 471.55658813 63.76977539 472.63452148 C62.47477592 475.70821387 60.93528064 478.47165908 59.24609375 481.34765625 C58.75419807 482.18753082 58.75419807 482.18753082 58.25236511 483.04437256 C57.17200046 484.88598605 56.08623351 486.72434289 55 488.5625 C54.23284754 489.86609271 53.46575878 491.16972291 52.69873047 492.47338867 C46.92125639 502.27508701 41.04235965 512.01284184 35.10375977 521.71777344 C31.17299673 528.14839103 27.31058778 534.61320011 23.515625 541.125 C22.66076883 542.58625436 21.80578901 544.0474364 20.95068359 545.50854492 C19.70645414 547.63499884 18.46589531 549.76312706 17.23760986 551.89883423 C6.25612592 570.99184356 6.25612592 570.99184356 -2.2265625 574.0625 C-9.46030069 575.49391109 -18.15551627 576.03747893 -24.5793457 571.90307617 C-31.67202682 566.54745426 -35.94459716 558.69646379 -40.25701904 551.10678101 C-42.10050283 547.86376116 -43.97445508 544.63834313 -45.84375 541.41015625 C-46.22639008 540.74756302 -46.60903015 540.08496979 -47.00326538 539.40229797 C-50.84096834 532.76955796 -54.81502151 526.22506743 -58.8125 519.6875 C-63.47653762 512.05264337 -68.1055607 504.39999597 -72.66015625 496.69921875 C-73.09626221 495.96215195 -73.53236816 495.22508514 -73.98168945 494.46568298 C-76.11595146 490.85637005 -78.24581833 487.24453695 -80.37060547 483.62963867 C-81.14153199 482.32336389 -81.91252466 481.01712814 -82.68359375 479.7109375 C-83.2105056 478.80990547 -83.2105056 478.80990547 -83.74806213 477.89067078 C-85.16546295 475.49426062 -86.4591218 473.4783782 -88.4375 471.5 C-90.36918958 471.61704384 -90.36918958 471.61704384 -92.55223083 472.24655151 C-93.41415543 472.46257019 -94.27608002 472.67858887 -95.16412354 472.90115356 C-96.1121283 473.15146332 -97.06013306 473.40177307 -98.03686523 473.65966797 C-99.03385941 473.91296875 -100.03085358 474.16626953 -101.05805969 474.42724609 C-103.2310683 474.98087713 -105.40270315 475.53992102 -107.57311821 476.10363388 C-111.01384352 476.99679508 -114.4580417 477.8751448 -117.90357971 478.74954224 C-126.46947866 480.92651057 -135.02911952 483.12766707 -143.58831787 485.33081055 C-150.80416713 487.18753702 -158.02256031 489.03366729 -165.24479866 490.86539078 C-168.62801274 491.72801589 -172.00698665 492.60603406 -175.38609314 493.48458862 C-177.48172277 494.0176961 -179.57754356 494.55005292 -181.67358398 495.08154297 C-182.60337067 495.32780426 -183.53315735 495.57406555 -184.49111938 495.82778931 C-193.45436003 498.06690818 -202.04217884 498.98125159 -210.5 494.70703125 C-213.26960305 492.98161322 -215.33003299 490.97937295 -217.4375 488.5 C-217.994375 487.860625 -218.55125 487.22125 -219.125 486.5625 C-223.77403296 479.25687677 -223.23702907 470.42577954 -221.45043945 462.22895813 C-220.99706711 460.38413151 -220.52984414 458.54266844 -220.05078125 456.7043457 C-219.670392 455.18037926 -219.670392 455.18037926 -219.28231812 453.62562561 C-218.45046009 450.30578807 -217.60042482 446.99090636 -216.75 443.67578125 C-216.16594032 441.36008269 -215.58303135 439.04409362 -215.0012207 436.72782898 C-213.47390019 430.66035503 -211.93106926 424.59693156 -210.3848877 418.53424072 C-208.80703378 412.33576127 -207.24400109 406.13354832 -205.6796875 399.93164062 C-202.61338776 387.7840775 -199.53067616 375.64074511 -196.4375 363.5 C-197.8415193 362.55627411 -199.24659651 361.61412204 -200.65209961 360.67260742 C-201.82560219 359.8853553 -201.82560219 359.8853553 -203.02281189 359.0821991 C-206.9337012 356.51962983 -210.96299639 354.16939432 -215 351.8125 C-216.94683081 350.66833658 -218.89343107 349.52378084 -220.83984375 348.37890625 C-221.89284668 347.76031738 -222.94584961 347.14172852 -224.03076172 346.50439453 C-235.17790045 339.94584437 -246.29402198 333.33491692 -257.4029541 326.71191406 C-259.42615557 325.50675751 -261.45072119 324.30392195 -263.47558594 323.1015625 C-266.69631446 321.18808334 -269.91162688 319.26578954 -273.12322998 317.33703613 C-274.3129944 316.62417813 -275.50439155 315.9140366 -276.6975708 315.20690918 C-296.94721243 303.19655722 -296.94721243 303.19655722 -299.4375 293.5 C-300.33966114 285.46512735 -300.43465584 278.11592831 -295.4375 271.5 C-289.82459959 265.61542086 -283.0638552 261.66896984 -276.04428101 257.68048096 C-272.80126116 255.83699717 -269.57584313 253.96304492 -266.34765625 252.09375 C-265.68506302 251.71110992 -265.02246979 251.32846985 -264.33979797 250.93423462 C-257.70705796 247.09653166 -251.16256743 243.12247849 -244.625 239.125 C-236.99014337 234.46096238 -229.33749597 229.8319393 -221.63671875 225.27734375 C-220.89965195 224.84123779 -220.16258514 224.40513184 -219.40318298 223.95581055 C-215.79387005 221.82154854 -212.18203695 219.69168167 -208.56713867 217.56689453 C-207.26086389 216.79596801 -205.95462814 216.02497534 -204.6484375 215.25390625 C-204.04774948 214.90263168 -203.44706146 214.55135712 -202.82817078 214.18943787 C-200.43176062 212.77203705 -198.4158782 211.4783782 -196.4375 209.5 C-196.55454384 207.56831042 -196.55454384 207.56831042 -197.18405151 205.38526917 C-197.40007019 204.52334457 -197.61608887 203.66141998 -197.83865356 202.77337646 C-198.08896332 201.8253717 -198.33927307 200.87736694 -198.59716797 199.90063477 C-198.85046875 198.90364059 -199.10376953 197.90664642 -199.36474609 196.87944031 C-199.91837713 194.7064317 -200.47742102 192.53479685 -201.04113388 190.36438179 C-201.93429508 186.92365648 -202.8126448 183.4794583 -203.68704224 180.03392029 C-205.86401057 171.46802134 -208.06516707 162.90838048 -210.26831055 154.34918213 C-212.12503702 147.13333287 -213.97116729 139.91493969 -215.80289078 132.69270134 C-216.66551589 129.30948726 -217.54353406 125.93051335 -218.42208862 122.55140686 C-218.9551961 120.45577723 -219.48755292 118.35995644 -220.01904297 116.26391602 C-220.26530426 115.33412933 -220.51156555 114.40434265 -220.76528931 113.44638062 C-223.02971791 104.38182455 -224.07241097 94.96941562 -219.4375 86.5 C-215.40006503 80.66814949 -210.50298199 76.8703763 -203.4375 75.5 C-195.82138277 74.92796004 -188.98840468 75.97222152 -181.6418457 77.88671875 C-180.62586807 78.14031158 -179.60989044 78.39390442 -178.56312561 78.65518188 C-175.24328807 79.48703991 -171.92840636 80.33707518 -168.61328125 81.1875 C-166.29758269 81.77155968 -163.98159362 82.35446865 -161.66532898 82.9362793 C-155.59785503 84.46359981 -149.53443156 86.00643074 -143.47174072 87.5526123 C-137.27326127 89.13046622 -131.07104832 90.69349891 -124.86914062 92.2578125 C-112.7215775 95.32411224 -100.57824511 98.40682384 -88.4375 101.5 C-87.47776311 100.06803796 -86.51904123 98.6353956 -85.56074524 97.20246887 C-84.75974884 96.00587505 -84.75974884 96.00587505 -83.94257069 94.78510761 C-82.10651968 91.99748165 -80.40205134 89.15070834 -78.73046875 86.26171875 C-77.74022705 84.55870605 -77.74022705 84.55870605 -76.72998047 82.82128906 C-76.3875531 82.22997192 -76.04512573 81.63865479 -75.69232178 81.02941895 C-68.83423748 69.19415458 -61.8294832 57.45471297 -54.69433594 45.78466797 C-51.18984285 40.04976631 -47.71707299 34.30089511 -44.31640625 28.50390625 C-43.6527002 27.37823242 -42.98899414 26.25255859 -42.30517578 25.09277344 C-41.06488745 22.98494216 -39.83213233 20.87265003 -38.60888672 18.75488281 C-34.27415642 11.41002649 -29.5295544 4.20075591 -22.3125 -0.5625 C-15.16928667 -2.29069677 -6.89400371 -3.02959147 0 0 Z M-112.4375 184.5 C-113.60539062 185.57314453 -113.60539062 185.57314453 -114.796875 186.66796875 C-141.28604387 211.70117266 -153.57676378 248.23229191 -155.56640625 283.8046875 C-156.51318509 320.28723224 -142.38590555 356.83241721 -117.46459961 383.31103516 C-116.12624176 384.71119952 -114.78198559 386.10571865 -113.4375 387.5 C-112.36435547 388.66789062 -112.36435547 388.66789062 -111.26953125 389.859375 C-87.16799758 415.36268642 -50.97262707 428.87958348 -16.4375 430.5 C-15.30441406 430.561875 -15.30441406 430.561875 -14.1484375 430.625 C22.31943534 431.62755321 58.91560143 417.42893785 85.37353516 392.52709961 C86.77369952 391.18874176 88.16821865 389.84448559 89.5625 388.5 C90.34109375 387.78457031 91.1196875 387.06914062 91.921875 386.33203125 C117.42518642 362.23049758 130.94208348 326.03512707 132.5625 291.5 C132.624375 290.36691406 132.624375 290.36691406 132.6875 289.2109375 C133.69005321 252.74306466 119.49143785 216.14689857 94.58959961 189.68896484 C93.25124176 188.28880048 91.90698559 186.89428135 90.5625 185.5 C89.84707031 184.72140625 89.13164062 183.9428125 88.39453125 183.140625 C64.29299758 157.63731358 28.09762707 144.12041652 -6.4375 142.5 C-7.19289063 142.45875 -7.94828125 142.4175 -8.7265625 142.375 C-47.98837345 141.2956375 -84.56363859 157.62163364 -112.4375 184.5 Z " fill="#000000" transform="translate(300.4375,2.5)"/>
<path d="M0 0 C14.06617955 11.87233132 24.61137813 26.07196441 30.84423828 43.43701172 C31.08295654 44.10104004 31.3216748 44.76506836 31.56762695 45.44921875 C39.60089004 69.24394737 37.18013377 96.59096678 26.37548828 119.06982422 C15.03331045 141.48689496 -4.62844969 158.65738826 -28.21826172 167.12451172 C-28.88229004 167.36322998 -29.54631836 167.60194824 -30.23046875 167.84790039 C-54.02519737 175.88116347 -81.37221678 173.46040721 -103.85107422 162.65576172 C-125.61200983 151.64556309 -142.78181895 132.57150692 -151.34326172 109.74951172 C-152.10094064 107.42528042 -152.8312253 105.09189881 -153.53076172 102.74951172 C-154.01029297 101.22583984 -154.01029297 101.22583984 -154.49951172 99.67138672 C-161.15289179 74.65960606 -156.30618985 47.69782814 -143.68701172 25.50732422 C-130.52059008 4.73243762 -111.08168486 -10.21718092 -87.53076172 -17.25048828 C-86.00708984 -17.73001953 -86.00708984 -17.73001953 -84.45263672 -18.21923828 C-55.63439259 -25.88517514 -22.9972201 -18.78656481 0 0 Z " fill="#000000" transform="translate(349.53076171875,213.25048828125)"/>
</svg>
